<?xml version="1.0" encoding="UTF-8" standalone="no"?>
<!-- Created with Inkscape (http://www.inkscape.org/) -->

<svg
   width="210mm"
   height="297mm"
   viewBox="0 0 210 297"
   version="1.1"
   id="svg1"
   xml:space="preserve"
   inkscape:version="1.3.2 (091e20e, 2023-11-25, custom)"
   sodipodi:docname="redo.svg"
   xmlns:inkscape="http://www.inkscape.org/namespaces/inkscape"
   xmlns:sodipodi="http://sodipodi.sourceforge.net/DTD/sodipodi-0.dtd"
   xmlns:xlink="http://www.w3.org/1999/xlink"
   xmlns="http://www.w3.org/2000/svg"
   xmlns:svg="http://www.w3.org/2000/svg"><sodipodi:namedview
     id="namedview1"
     pagecolor="#ffffff"
     bordercolor="#111111"
     borderopacity="1"
     inkscape:showpageshadow="0"
     inkscape:pageopacity="0"
     inkscape:pagecheckerboard="1"
     inkscape:deskcolor="#d1d1d1"
     inkscape:document-units="mm"
     inkscape:zoom="0.51717104"
     inkscape:cx="671.92471"
     inkscape:cy="316.143"
     inkscape:window-width="1920"
     inkscape:window-height="1017"
     inkscape:window-x="1912"
     inkscape:window-y="-8"
     inkscape:window-maximized="1"
     inkscape:current-layer="layer1" /><defs
     id="defs1"><linearGradient
       id="linearGradient7"
       inkscape:collect="always"><stop
         style="stop-color:#000000;stop-opacity:1;"
         offset="0"
         id="stop7" /><stop
         style="stop-color:#000000;stop-opacity:0;"
         offset="1"
         id="stop8" /></linearGradient><linearGradient
       inkscape:collect="always"
       xlink:href="#linearGradient7"
       id="linearGradient8"
       x1="34"
       y1="256"
       x2="478"
       y2="256"
       gradientUnits="userSpaceOnUse" /></defs><g
     inkscape:label="Calque 1"
     inkscape:groupmode="layer"
     id="layer1"><g
       style="fill:#e5e5e5;fill-opacity:1;stroke:#e5e5e5;stroke-opacity:1;stroke-width:8.4661417;stroke-dasharray:none;stroke-dashoffset:0"
       id="g7"
       transform="matrix(0.41341146,0,0,0.41341146,-0.74380879,42.666666)"><g
         id="g2"
         style="fill:#e5e5e5;fill-opacity:1;stroke:#e5e5e5;stroke-opacity:1;stroke-width:8.4661417;stroke-dasharray:none;stroke-dashoffset:0">
	<g
   id="g1"
   style="fill:#e5e5e5;fill-opacity:1;stroke:#e5e5e5;stroke-opacity:1;stroke-width:8.4661417;stroke-dasharray:none;stroke-dashoffset:0">
		<path
   d="m 434.475,246.476 c -24,0 -43.525,19.525 -43.525,43.524 0,74.413 -60.538,134.952 -134.951,134.952 -74.413,0 -134.95,-60.539 -134.95,-134.952 0,-51.821 29.943,-98.87 75.856,-121.303 v 17.055 c 0,23.999 19.525,43.524 43.525,43.524 11.626,0 22.554,-4.526 30.777,-12.747 l 71.113,-71.114 c 8.222,-8.221 12.748,-19.151 12.748,-30.777 0,-11.626 -4.526,-22.556 -12.748,-30.777 L 271.207,12.748 C 262.985,4.527 252.054,0 240.429,0 c -24,0 -43.524,19.525 -43.524,43.525 V 75.923 C 160.071,86.042 126.368,105.675 99.022,133.021 57.093,174.952 34,230.701 34,289.999 34,349.298 57.093,405.047 99.023,446.977 140.952,488.907 196.701,512 256,512 315.299,512 371.047,488.908 412.977,446.978 454.907,405.048 478,349.299 478,290 c 0,-23.999 -19.525,-43.524 -43.525,-43.524 z m -35.92,186.076 c -38.077,38.079 -88.704,59.049 -142.554,59.049 -53.85,0 -104.478,-20.971 -142.554,-59.048 C 75.368,394.476 54.398,343.85 54.398,289.999 c 0,-53.85 20.971,-104.477 59.049,-142.554 26.597,-26.596 59.79,-45.155 95.992,-53.67 4.608,-1.083 7.865,-5.194 7.865,-9.928 V 43.525 c 0,-12.752 10.375,-23.127 23.127,-23.127 6.178,0 11.985,2.405 16.353,6.773 l 71.113,71.113 c 4.369,4.367 6.774,10.176 6.774,16.352 0,6.176 -2.406,11.985 -6.774,16.352 l -71.112,71.114 c -4.368,4.368 -10.176,6.773 -16.353,6.773 -12.752,0 -23.127,-10.375 -23.127,-23.126 v -32.415 c 0,-3.32 -1.616,-6.432 -4.331,-8.342 -2.713,-1.909 -6.188,-2.382 -9.314,-1.258 -61.612,22.109 -103.008,80.887 -103.008,146.263 0,85.66 69.69,155.349 155.35,155.349 85.66,0 155.349,-69.69 155.349,-155.35 0,-12.751 10.375,-23.126 23.127,-23.126 12.752,0 23.127,10.375 23.127,23.126 -0.001,53.853 -20.972,104.48 -59.05,142.556 z"
   id="path1"
   style="fill:#e5e5e5;fill-opacity:1;stroke:#e5e5e5;stroke-opacity:1;stroke-width:8.4661417;stroke-dasharray:none;stroke-dashoffset:0" />
	</g>
</g></g><path
       style="fill:none;fill-opacity:1;stroke:#e5e5e5;stroke-width:12.7891;stroke-dasharray:none;stroke-dashoffset:0;stroke-opacity:1"
       d="M 364.9663,920.7281 C 278.13143,911.67235 199.45175,865.94721 147.2907,794.22468 116.92676,752.47363 97.930594,703.69564 91.19055,650.17176 c -1.694184,-13.45382 -1.694184,-58.08925 0,-71.54307 8.95839,-71.14017 39.03839,-132.769 89.11731,-182.58631 35.87114,-35.68374 82.57304,-63.58587 128.10075,-76.534 5.84913,-1.66349 13.57009,-3.87469 17.15769,-4.91378 7.41186,-2.14672 12.32688,-5.9117 15.5287,-11.89524 2.0509,-3.83269 2.13373,-5.17458 2.60174,-42.14726 0.47684,-37.67005 0.51472,-38.25782 2.78999,-43.29267 2.8371,-6.27807 10.06968,-13.00707 16.24041,-15.10965 2.48446,-0.84654 7.37636,-1.53491 10.87087,-1.52972 12.41159,0.0185 10.38944,-1.68481 76.08873,64.08952 55.89664,55.96051 59.21139,59.4711 61.14998,64.76315 2.61603,7.14136 2.61698,14.5344 0.003,21.68043 -1.93652,5.29355 -5.23489,8.78732 -61.14998,64.77257 -52.68292,52.74901 -59.72384,59.45946 -64.8179,61.77556 -14.44266,6.5666 -30.39312,0.85945 -38.1163,-13.63818 l -2.57517,-4.83399 -0.50453,-32.38774 c -0.33366,-21.4189 -0.88473,-33.25179 -1.62713,-34.93903 -1.79193,-4.07244 -7.02237,-9.47701 -11.31198,-11.68856 -9.06423,-4.67314 -21.16378,-1.50231 -48.58679,12.73279 -24.23391,12.57966 -44.50143,27.76415 -64.13673,48.05144 -59.03567,60.99596 -82.88721,145.99238 -64.26631,229.01699 7.92168,35.32023 24.66422,70.0218 48.33514,100.18232 14.80353,18.86204 43.14272,43.83034 64.85786,57.14316 51.3515,31.48185 112.77175,43.2232 172.95349,33.06249 60.89763,-10.28157 118.06855,-45.0578 155.68164,-94.69884 11.1122,-14.66568 17.80019,-25.5593 26.11632,-42.53912 15.0075,-30.64224 22.61475,-60.17131 24.65753,-95.71302 1.18725,-20.6567 2.42534,-25.69356 7.82287,-31.82549 6.12436,-6.95764 12.19014,-9.68429 21.62039,-9.71865 10.06101,-0.0367 17.12413,3.15946 22.77195,10.30448 5.92989,7.50188 7.11479,13.04173 6.33217,29.60516 -3.87239,81.95545 -35.8561,153.60543 -93.51657,209.4961 -49.68388,48.15891 -110.75304,77.05072 -179.70409,85.01797 -14.34546,1.6576 -52.44506,1.88408 -66.70907,0.39653 z"
       id="path8"
       transform="scale(0.26458333)" /><path
       style="fill:none;fill-opacity:1;stroke:#e5e5e5;stroke-width:12.7891;stroke-dasharray:none;stroke-dashoffset:0;stroke-opacity:1"
       d="M 368.23284,914.11991 C 339.93593,911.72487 304.69146,902.62459 277.47107,890.6848 225.75496,868.00036 181.32627,831.15565 148.13362,783.42526 123.10616,747.43628 104.54394,698.78692 98.655007,653.74773 96.681254,638.65226 96.618635,590.24845 98.554074,575.7283 c 4.326816,-32.46086 13.794336,-63.90681 28.088896,-93.29602 29.26641,-60.17092 79.75722,-110.17482 141.16012,-139.79884 16.3644,-7.89507 27.85032,-12.22137 48.5395,-18.28298 21.37255,-6.26182 26.85487,-9.77799 31.48165,-20.19124 1.72199,-3.8756 1.95564,-7.64553 2.65631,-42.85841 l 0.76824,-38.60903 2.74986,-4.39286 c 4.41837,-7.05827 9.32646,-9.9805 17.82554,-10.61315 l 7.16068,-0.53302 6.10391,4.50653 c 6.93457,5.11982 73.47064,70.70877 100.65282,99.22006 18.45471,19.35708 20.37723,22.13405 20.37723,29.43361 0,7.29682 -1.92481,10.07864 -20.36586,29.43361 -24.65872,25.88077 -96.25392,96.55062 -101.42829,100.11734 -3.78808,2.61116 -4.95481,2.9004 -11.69975,2.9004 -6.77992,0 -7.88837,-0.27854 -11.66137,-2.9303 -2.29312,-1.61166 -5.48477,-5.05679 -7.09256,-7.65584 l -2.92327,-4.72555 -0.58916,-31.01608 c -0.32403,-17.05885 -0.92443,-32.53879 -1.33422,-34.39988 -1.5146,-6.87876 -9.5294,-15.62107 -17.29626,-18.86627 -4.1036,-1.71459 -13.4568,-1.86743 -19.74927,-0.32272 -6.82743,1.67604 -25.24066,9.77098 -37.19682,16.35271 -22.35549,12.30644 -39.76649,25.41452 -58.29247,43.88618 -40.2959,40.17774 -64.62889,88.9657 -73.55356,147.47574 -2.11026,13.83488 -2.37524,50.93724 -0.46261,64.77548 5.62528,40.69999 18.90684,76.76826 40.33754,109.54327 14.07026,21.51835 31.71536,40.84805 53.36525,58.46009 46.17148,37.56022 101.64692,57.2606 161.24336,57.2606 55.63023,0 107.57258,-17.26659 152.68864,-50.75653 33.64034,-24.97143 58.20488,-54.58356 76.88327,-92.68142 15.37357,-31.35709 23.35068,-60.33735 25.58385,-92.94419 1.99647,-29.15064 3.8693,-34.53728 13.74234,-39.52564 4.57046,-2.30923 15.04537,-2.08099 20.25585,0.44136 9.21239,4.45965 12.54831,13.53071 11.49017,31.24421 -2.02732,33.93784 -8.42298,65.17763 -19.51781,95.3353 -4.66041,12.66782 -18.24103,39.98096 -25.95838,52.2071 -13.89975,22.02056 -33.02683,44.7822 -52.4631,62.4322 -46.04442,41.81277 -98.73601,66.77981 -160.20073,75.90845 -14.52346,2.15701 -55.58233,3.22075 -71.69077,1.85734 z"
       id="path9"
       transform="scale(0.26458333)" /><path
       style="fill:none;fill-opacity:1;stroke:#e5e5e5;stroke-width:12.7891;stroke-dasharray:none;stroke-dashoffset:0;stroke-opacity:1"
       d="m 371.17829,907.2775 c -25.51406,-1.63016 -57.92708,-9.48982 -85.6236,-20.76238 -59.52905,-24.22851 -113.28479,-71.86419 -145.1345,-128.61103 -11.80979,-21.04158 -23.03951,-49.9897 -29.18632,-75.23688 -6.28626,-25.81994 -6.81021,-31.17219 -6.77743,-69.23378 0.0272,-31.60465 0.20574,-35.27792 2.25539,-46.40631 11.81561,-64.15195 37.79178,-114.66526 81.81381,-159.09523 20.49964,-20.6896 37.50132,-33.84628 63.01082,-48.76069 20.51416,-11.99383 37.15453,-19.06341 66.05673,-28.06388 15.74291,-4.90252 23.576,-8.33565 28.11829,-12.32383 3.81759,-3.35188 8.45738,-11.25845 9.71054,-16.54749 0.4555,-1.92245 1.26244,-20.18708 1.7932,-40.58805 0.91368,-35.11907 1.07337,-37.26797 3.00119,-40.38726 2.47451,-4.00383 6.265,-6.08641 12.29455,-6.75488 4.22419,-0.46832 4.8769,-0.22504 9.37431,3.49404 15.25183,12.61231 107.24719,105.11279 114.50982,115.13856 4.11186,5.67625 3.91198,9.08561 -0.91086,15.53695 -5.53337,7.40176 -50.10379,52.85821 -85.64434,87.34687 l -30.39055,29.49108 h -6.56191 c -6.322,0 -6.68862,-0.13256 -10.02761,-3.62549 -1.90613,-1.99402 -3.95219,-4.57578 -4.5468,-5.73724 -0.68256,-1.33326 -1.11379,-9.35227 -1.16976,-21.75295 -0.0488,-10.80268 -0.3848,-25.29699 -0.74675,-32.2096 -0.76749,-14.65748 -2.33548,-18.92405 -9.75355,-26.53989 -12.12096,-12.44415 -27.07739,-13.90162 -49.00525,-4.7755 -44.54514,18.53919 -81.27347,47.1192 -111.06247,86.42289 -30.61883,40.39854 -49.51885,92.09579 -51.60402,141.15253 -2.18262,51.3495 5.4969,89.68465 26.53988,132.48355 23.49858,47.7933 61.72702,87.51164 110.14345,114.43613 76.72076,42.66459 175.37956,42.51745 251.86665,-0.37566 47.54809,-26.66444 82.77644,-62.79913 106.51825,-109.25869 18.98785,-37.15669 26.04333,-62.31024 29.81602,-106.29728 1.83106,-21.34891 3.03241,-25.16435 8.87463,-28.18549 2.2321,-1.15426 4.57367,-1.45204 8.56916,-1.08975 11.23224,1.01852 13.94443,5.43537 13.7899,22.45714 -0.31102,34.25954 -10.85646,80.30134 -25.61661,111.84319 -21.26538,45.44321 -44.3442,75.56704 -82.27292,107.38745 -37.95591,31.84319 -86.68794,53.91248 -138.09821,62.54057 -10.40412,1.7461 -50.02816,4.23099 -59.83236,3.75218 -1.32934,-0.0649 -7.6702,-0.45368 -14.09077,-0.8639 z"
       id="path10"
       transform="scale(0.26458333)" /><path
       style="fill:none;fill-opacity:1;stroke:#e5e5e5;stroke-width:12.7891;stroke-dasharray:none;stroke-dashoffset:0;stroke-opacity:1"
       d="M 371.73389,900.53843 C 336.28402,897.5106 296.69043,885.93883 265.4851,869.48578 207.83915,839.09186 160.96682,789.76894 135.9871,733.21734 c -10.84244,-24.54619 -20.87271,-58.17524 -23.32,-78.18623 -1.63045,-13.33179 -1.29165,-74.4586 0.46964,-84.73526 3.89683,-22.73698 11.84795,-49.75326 20.79039,-70.6416 22.22777,-51.92103 64.93911,-100.4725 115.18326,-130.93282 22.71991,-13.77385 35.9397,-19.66726 67.80823,-30.22903 29.03606,-9.62303 35.85838,-13.98648 42.13263,-26.94736 3.2226,-6.657 3.80765,-12.47782 4.93103,-49.05934 0.60387,-19.66458 1.50085,-35.45399 2.10043,-36.97364 0.75842,-1.9222 2.0971,-2.9352 4.86318,-3.68003 3.65235,-0.98348 3.99087,-0.87334 7.86144,2.55779 19.03795,16.87649 104.04109,102.37528 111.48607,112.13616 2.28501,2.9958 2.33411,3.31479 0.92855,6.03284 -2.18736,4.22989 -45.93792,49.30259 -82.51408,85.00766 -30.95549,30.21825 -32.057,31.17924 -35.73862,31.17924 -2.82867,0 -4.39427,-0.63395 -6.13098,-2.48259 -2.31903,-2.4685 -2.33618,-2.64285 -3.01845,-30.69584 -0.74367,-30.57782 -1.60225,-38.15533 -5.10687,-45.07135 -3.40219,-6.7139 -14.55245,-16.7872 -21.45009,-19.3783 -11.28703,-4.23996 -24.65454,-3.42218 -39.61962,2.42379 -20.80964,8.12912 -49.29433,24.63468 -67.54528,39.13939 -17.77272,14.12463 -41.25366,39.22615 -54.80212,58.58437 -22.48891,32.13244 -38.76702,73.08387 -44.92241,113.01291 -2.54279,16.49467 -2.55887,63.40843 -0.0275,80.24425 7.04874,46.88034 26.82294,91.65298 57.00376,129.06755 9.66195,11.97774 31.62329,33.63917 43.23168,42.64131 35.03991,27.17294 71.98432,44.27152 113.58465,52.56916 19.62525,3.91447 29.71131,4.79813 54.15483,4.74459 18.93162,-0.0415 25.78388,-0.44605 37.22173,-2.19774 41.92428,-6.42062 76.39924,-19.60857 110.21676,-42.162 44.41935,-29.62394 73.97347,-64.46899 97.14695,-114.5387 13.74039,-29.68813 20.1294,-55.12305 23.68581,-94.29413 2.03932,-22.46162 3.01617,-24.47094 11.29324,-23.22972 5.54926,0.83216 6.12436,2.36394 6.12436,16.31224 0,35.64077 -11.43103,81.50774 -29.12983,116.88332 -20.29295,40.56067 -43.78302,69.93005 -78.66816,98.35795 -35.63308,29.03741 -83.61399,50.67011 -129.55095,58.40943 -18.28407,3.08045 -57.90804,4.90642 -74.92686,3.45282 z"
       id="path11"
       transform="scale(0.26458333)" /><path
       style="fill:none;fill-opacity:1;stroke:#e5e5e5;stroke-width:12.7891;stroke-dasharray:none;stroke-dashoffset:0;stroke-opacity:1"
       d="m 362.06591,892.77145 c -32.94426,-4.84519 -68.03698,-15.91637 -93.77942,-29.58587 -23.97484,-12.73087 -50.3201,-32.28901 -69.98415,-51.95466 -33.9064,-33.90916 -56.58313,-73.11102 -71.19285,-123.07299 -7.94542,-27.17157 -8.2023,-29.53493 -8.12216,-74.7245 0.0708,-39.9077 0.085,-40.18413 2.67183,-51.7237 13.89949,-62.00531 38.32829,-106.60455 81.02181,-147.92012 17.15477,-16.6011 30.53177,-27.09047 49.55671,-38.85917 20.2872,-12.54952 34.11141,-18.77835 65.25686,-29.40307 31.34085,-10.69136 40.25407,-16.41908 46.9274,-30.15596 4.35261,-8.95974 5.01566,-14.41745 6.42206,-52.86166 0.61227,-16.73656 1.41318,-31.24095 1.77979,-32.232 0.5516,-1.49112 4.96401,2.33988 25.58334,22.21231 28.28687,27.26223 85.67534,86.06916 85.67534,87.79296 0,2.8536 -108.30042,111.69512 -111.13983,111.69512 -1.12247,0 -1.95492,-8.88683 -1.99237,-21.26956 -0.0536,-17.70795 -1.73225,-40.4372 -3.4206,-46.31466 -2.11013,-7.34576 -6.28806,-13.60852 -13.32887,-19.9801 -14.16095,-12.81491 -29.9841,-15.71716 -51.7769,-9.49676 -16.54753,4.72322 -50.03365,22.92619 -72.10228,39.19463 -17.86221,13.16756 -46.85208,43.80073 -61.62424,65.11743 -19.89596,28.71049 -35.7335,66.89501 -42.85248,103.31791 -4.5749,23.40658 -5.42824,67.76557 -1.79724,93.42552 3.1814,22.48264 11.01421,48.99896 21.13425,71.54551 32.97603,73.46763 99.37276,130.97132 176.25147,152.6447 7.30333,2.05893 19.80467,4.99182 27.78075,6.51752 14.22126,2.72032 15.14761,2.77402 47.85651,2.77402 36.52425,0 42.25598,-0.6059 68.64267,-7.2562 48.66357,-12.2648 94.37201,-38.81334 130.04761,-75.53472 19.99012,-20.57611 33.90874,-40.33697 47.85472,-67.94137 17.72909,-35.09267 24.39399,-58.39755 29.4407,-102.94423 1.34869,-11.90474 2.45217,-21.80234 2.45217,-21.99466 0,-0.19234 0.50219,-0.34969 1.11598,-0.34969 0.82098,0 0.96128,4.02519 0.53075,15.22707 -2.15789,56.14585 -25.30715,116.33319 -62.46765,162.41387 -8.65471,10.73224 -27.78415,29.97059 -39.24269,39.46611 -39.39808,32.64863 -91.1563,55.22576 -140.66913,61.36042 -11.12334,1.37818 -64.68582,2.02125 -72.50986,0.87055 z"
       id="path12"
       transform="scale(0.26458333)" /><path
       style="fill:none;fill-opacity:1;stroke:#e5e5e5;stroke-width:12.7891;stroke-dasharray:none;stroke-dashoffset:0;stroke-opacity:1"
       d="m 377.5572,428.77498 c -0.0361,-12.0514 -1.63287,-35.06036 -2.95216,-42.53912 -2.38645,-13.52819 -14.17739,-28.24128 -28.115,-35.08275 -3.92914,-1.92868 -7.98017,-3.75788 -9.0023,-4.06489 -1.37219,-0.41215 0.68558,-1.80624 7.86509,-5.32839 13.04035,-6.3974 19.38363,-12.25255 24.45575,-22.57383 5.56921,-11.33279 5.49747,-10.77869 8.31078,-64.19299 0.31508,-5.98206 0.91258,-10.87648 1.3278,-10.87648 0.96002,0 68.92991,67.97076 84.32902,84.33009 l 11.58145,12.30362 -48.88502,49.08806 -48.88502,49.08806 z"
       id="path13"
       transform="scale(0.26458333)" /><path
       style="fill:none;fill-opacity:1;stroke:#e5e5e5;stroke-width:12.7891;stroke-dasharray:none;stroke-dashoffset:0;stroke-opacity:1"
       d="m 383.86352,412.71803 c -1.18267,-17.6798 -2.59615,-28.86692 -4.27758,-33.85549 -3.63103,-10.77276 -13.4552,-23.29866 -23.4571,-29.90799 l -4.47933,-2.95998 4.47109,-2.35741 c 7.59975,-4.00701 14.91621,-12.22859 19.87604,-22.33492 5.26767,-10.73359 5.9803,-14.73115 7.61319,-42.70675 l 1.17583,-20.14514 40.36383,40.62144 c 22.2001,22.34178 40.36382,40.98034 40.36382,41.41901 0,0.43867 -18.22727,19.02097 -40.50503,41.294 l -40.50503,40.49642 z"
       id="path14"
       transform="scale(0.26458333)" /><path
       style="fill:none;fill-opacity:1;stroke:#e5e5e5;stroke-width:12.7891;stroke-dasharray:none;stroke-dashoffset:0;stroke-opacity:1"
       d="m 388.95687,393.75928 c -0.85666,-7.06244 -2.2766,-14.9219 -3.15542,-17.46547 -2.54409,-7.36339 -7.95452,-15.79425 -14.77707,-23.02651 l -6.3218,-6.70145 5.01828,-5.11636 c 5.92244,-6.0382 7.79174,-8.67696 12.10681,-17.09032 4.907,-9.56746 6.30499,-15.55699 7.44632,-31.90273 0.57549,-8.24195 1.25051,-15.63796 1.50005,-16.43557 0.30166,-0.96419 11.28144,9.48899 32.7625,31.19114 17.76983,17.95274 32.30879,32.96468 32.30879,33.35987 0,0.39519 -14.69945,15.41321 -32.66544,33.37338 l -32.66544,32.65483 z"
       id="path15"
       transform="scale(0.26458333)" /><path
       style="fill:none;fill-opacity:1;stroke:#e5e5e5;stroke-width:12.7891;stroke-dasharray:none;stroke-dashoffset:0;stroke-opacity:1"
       d="m 394.13458,383.09377 c -1.51633,-9.83811 -6.66415,-20.70863 -14.19199,-29.96886 l -5.3035,-6.52401 4.81573,-5.97625 c 9.6075,-11.9228 14.78188,-25.66854 16.09545,-42.7576 l 0.65103,-8.46971 12.48698,12.40603 c 6.86784,6.82332 18.18938,18.4168 25.15898,25.7633 l 12.67201,13.35728 -25.05904,25.07295 c -13.78247,13.79012 -25.29243,25.07295 -25.57768,25.07295 -0.28525,0 -1.07184,-3.58924 -1.74797,-7.97608 z"
       id="path16"
       transform="scale(0.26458333)" /><path
       style="fill:none;fill-opacity:1;stroke:#e5e5e5;stroke-width:12.7891;stroke-dasharray:none;stroke-dashoffset:0;stroke-opacity:1"
       d="m 399.35972,374.97789 c -1.12655,-4.62731 -7.91348,-17.95839 -11.58911,-22.76366 -1.90759,-2.49387 -3.46835,-4.99445 -3.46835,-5.55686 0,-0.5624 1.50639,-3.11933 3.34753,-5.68206 4.72586,-6.57806 9.86319,-17.85963 11.74822,-25.79911 0.88374,-3.72218 1.89249,-7.5827 2.24167,-8.57894 0.52057,-1.48526 3.7164,1.37672 17.75227,15.89782 9.41458,9.74004 17.11741,17.95544 17.11741,18.25646 0,0.30101 -8.20745,8.74622 -18.23877,18.76712 -17.86363,17.84507 -18.25261,18.16305 -18.91087,15.45923 z"
       id="path17"
       transform="scale(0.26458333)" /><path
       style="fill:none;fill-opacity:1;stroke:#e5e5e5;stroke-width:12.7891;stroke-dasharray:none;stroke-dashoffset:0;stroke-opacity:1"
       d="m 399.42304,358.58356 c -1.87929,-3.66797 -4.26369,-7.91421 -5.29869,-9.43609 l -1.8818,-2.76705 3.65158,-5.93413 c 2.00837,-3.26377 5.11622,-9.58284 6.90634,-14.04237 l 3.25475,-8.10825 10.38789,11.00864 c 5.71333,6.05475 10.39022,11.2327 10.39308,11.50655 0.003,0.27384 -5.39514,5.88527 -11.99554,12.46982 l -12.00073,11.97192 z"
       id="path18"
       transform="scale(0.26458333)" /><path
       style="fill:none;fill-opacity:1;stroke:#e5e5e5;stroke-width:12.7891;stroke-dasharray:none;stroke-dashoffset:0;stroke-opacity:1"
       d="m 402.74729,350.3648 c -1.10123,-1.80635 -2.00386,-3.57715 -2.00584,-3.93513 -0.002,-0.35797 1.81374,-4.02012 4.03495,-8.1381 l 4.03856,-7.48724 4.15934,4.75431 c 2.28763,2.61487 4.16828,4.98441 4.17922,5.26564 0.0109,0.28123 -2.77549,3.28185 -6.19206,6.66805 l -6.21194,6.15673 z"
       id="path19"
       transform="scale(0.26458333)" /></g></svg>
